<svg width="64" height="64" viewBox="0 0 64 64" fill="none" xmlns="http://www.w3.org/2000/svg">
<g clip-path="url(#clip0_226_286)">
<g clip-path="url(#clip1_226_286)">
<path d="M60.0715 24.4682C60.0715 39.942 47.507 52.5065 32.0332 52.5065C32.0332 37.0327 44.5977 24.4682 60.0715 24.4682Z" fill="#599276"/>
<path d="M32.0381 52.5065C16.5643 52.5065 3.99981 39.942 3.99981 24.4682C19.4736 24.4682 32.0381 37.0327 32.0381 52.5065Z" fill="#599276"/>
<path d="M32.0382 30.9152C37.2614 30.9152 41.4958 26.6809 41.4958 21.4576C41.4958 16.2343 37.2614 12 32.0382 12C26.8149 12 22.5806 16.2343 22.5806 21.4576C22.5806 26.6809 26.8149 30.9152 32.0382 30.9152Z" fill="#E4A450"/>
</g>
</g>
<defs>
<clipPath id="clip0_226_286">
<rect width="64" height="64" fill="white"/>
</clipPath>
<clipPath id="clip1_226_286">
<rect width="56.0715" height="40.5065" fill="white" transform="translate(4 12)"/>
</clipPath>
</defs>
</svg>
