<svg width="64" height="64" viewBox="0 0 64 64" fill="none" xmlns="http://www.w3.org/2000/svg">
<g clip-path="url(#clip0_226_282)">
<g clip-path="url(#clip1_226_282)">
<path d="M30.601 15H32.7956C43.059 15 51.3914 23.3324 51.3914 33.601V49.4853H12V33.601C12 23.3324 20.3324 15 30.601 15Z" fill="#4462A9"/>
<path d="M31.6958 49.4852C39.0913 49.4852 45.0865 43.49 45.0865 36.0945C45.0865 28.6991 39.0913 22.7039 31.6958 22.7039C24.3004 22.7039 18.3052 28.6991 18.3052 36.0945C18.3052 43.49 24.3004 49.4852 31.6958 49.4852Z" fill="#E4A450"/>
<path d="M18.3052 21.0922H45.0865V34.5943H31.8073C24.3568 34.5943 18.3052 28.5427 18.3052 21.0922V21.0922Z" fill="#4462A9"/>
<path d="M25.2134 39.1406C25.2134 42.724 28.1176 45.6282 31.7009 45.6282C35.2842 45.6282 38.1834 42.724 38.1834 39.1406H25.2134V39.1406Z" fill="white"/>
</g>
</g>
<defs>
<clipPath id="clip0_226_282">
<rect width="64" height="64" fill="white"/>
</clipPath>
<clipPath id="clip1_226_282">
<rect width="39.3914" height="34.4853" fill="white" transform="translate(12 15)"/>
</clipPath>
</defs>
</svg>
