<svg width="64" height="64" viewBox="0 0 64 64" fill="none" xmlns="http://www.w3.org/2000/svg">
<g clip-path="url(#clip0_226_288)">
<g clip-path="url(#clip1_226_288)">
<path d="M47.092 56C52.0119 56 56.0003 51.983 56.0003 47.0277C56.0003 42.0724 52.0119 38.0554 47.092 38.0554C42.172 38.0554 38.1836 42.0724 38.1836 47.0277C38.1836 51.983 42.172 56 47.092 56Z" fill="#DA663B"/>
<path d="M16.9084 26.9446C21.8283 26.9446 25.8167 22.9275 25.8167 17.9723C25.8167 13.017 21.8283 9 16.9084 9C11.9884 9 8 13.017 8 17.9723C8 22.9275 11.9884 26.9446 16.9084 26.9446Z" fill="#4462A9"/>
<path d="M25.3118 33.3602H13.1666C10.3132 33.3602 8 35.69 8 38.5639V50.7963C8 53.6702 10.3132 55.9999 13.1666 55.9999H25.3118C28.1652 55.9999 30.4784 53.6702 30.4784 50.7963V38.5639C30.4784 35.69 28.1652 33.3602 25.3118 33.3602Z" fill="#E4A450"/>
<path d="M50.8333 8.99988H38.6881C35.8346 8.99988 33.5215 11.3296 33.5215 14.2035V26.4359C33.5215 29.3098 35.8346 31.6396 38.6881 31.6396H50.8333C53.6867 31.6396 55.9999 29.3098 55.9999 26.4359V14.2035C55.9999 11.3296 53.6867 8.99988 50.8333 8.99988Z" fill="#599276"/>
</g>
</g>
<defs>
<clipPath id="clip0_226_288">
<rect width="64" height="64" fill="white"/>
</clipPath>
<clipPath id="clip1_226_288">
<rect width="48" height="47" fill="white" transform="translate(8 9)"/>
</clipPath>
</defs>
</svg>
