<svg width="216" height="19" viewBox="0 0 216 19" fill="none" xmlns="http://www.w3.org/2000/svg">
<g clip-path="url(#clip0_226_85)">
<path d="M0 18.4947H4.6914V12.2287H11.4353V7.88297H4.6914V4.85105H13.39V0.50531H0V18.4947Z" fill="white"/>
<path d="M27.1709 11.0159C27.1709 12.0266 26.8777 12.8351 26.1935 13.5425C25.6071 14.25 24.8252 14.5532 23.9456 14.5532C23.0659 14.5532 22.284 14.25 21.6976 13.5425C21.1112 12.8351 20.7202 12.0266 20.7202 11.0159V0.50531H16.0288V11.0159C16.0288 13.2394 16.8107 15.1596 18.2768 16.6755C19.7428 18.1915 21.6976 19 23.9456 19C26.1935 19 28.1483 18.1915 29.6143 16.6755C31.0804 15.1596 31.8623 13.2394 31.8623 11.0159V0.50531H27.1709V11.0159Z" fill="white"/>
<path d="M34.3057 4.85105H39.0948V18.4947H43.8839V4.85105H48.6731V0.50531H34.3057V4.85105Z" fill="white"/>
<path d="M62.2588 11.0159C62.2588 12.0266 61.9656 12.8351 61.2814 13.5425C60.695 14.25 59.9131 14.5532 59.0335 14.5532C58.1538 14.5532 57.3719 14.25 56.7855 13.5425C56.1991 12.8351 55.8081 12.0266 55.8081 11.0159V0.50531H51.1167V11.0159C51.1167 13.2394 51.8986 15.1596 53.3647 16.6755C54.8307 18.1915 56.7855 19 59.0335 19C61.2814 19 63.2362 18.1915 64.7022 16.6755C66.1683 15.1596 66.9502 13.2394 66.9502 11.0159V0.50531H62.2588V11.0159Z" fill="white"/>
<path d="M82.6861 11.7234C82.8816 11.6223 83.0771 11.4202 83.3703 11.117C83.6635 10.8138 83.9567 10.5106 84.2499 10.1064C84.5431 9.70211 84.8363 9.19679 85.0318 8.59041C85.2273 7.98403 85.325 7.27658 85.325 6.56913C85.325 4.85105 84.7386 3.33509 83.5657 2.12233C82.3929 0.90956 80.8291 0.303177 79.0698 0.303177H70.8599V18.2925H75.5513V12.633H77.9947L81.0246 18.2925H86.0092L82.3929 11.7234H82.6861ZM80.0472 7.98403C79.6562 8.28722 79.2653 8.48935 78.6789 8.48935H75.4535V4.85105H78.6789C79.2653 4.85105 79.6562 5.05318 80.0472 5.35637C80.4381 5.65956 80.5359 6.16488 80.5359 6.6702C80.6336 7.17552 80.4381 7.57977 80.0472 7.98403Z" fill="white"/>
<path d="M93.4371 11.3191H100.083V7.47871H93.4371V4.64893H102.136V0.50531H88.6479V18.4947H102.331V14.3511H93.4371V11.3191Z" fill="white"/>
<path d="M115.917 11.117C117.383 11.117 118.653 10.6117 119.728 9.60108C120.803 8.59044 121.292 7.27661 121.292 5.86172C121.292 4.44683 120.803 3.133 119.728 2.12236C118.653 1.11172 117.383 0.6064 115.917 0.6064C114.451 0.6064 113.18 1.11172 112.105 2.12236C111.03 3.133 110.541 4.44683 110.541 5.86172C110.541 7.27661 111.03 8.59044 112.105 9.60108C113.18 10.6117 114.451 11.117 115.917 11.117ZM113.962 3.84044C114.451 3.33512 115.135 3.03193 115.917 3.03193C116.698 3.03193 117.285 3.33512 117.871 3.84044C118.36 4.34576 118.653 5.05321 118.653 5.86172C118.653 6.67023 118.36 7.37768 117.871 7.883C117.383 8.38831 116.698 8.69151 115.917 8.69151C115.135 8.69151 114.548 8.38831 113.962 7.883C113.473 7.37768 113.18 6.67023 113.18 5.86172C113.18 5.05321 113.473 4.34576 113.962 3.84044Z" fill="white"/>
<path d="M122.954 10.9149H125.593V7.37768H129.307V4.95215H125.593V3.33512H130.382V0.909592H122.954V10.9149Z" fill="white"/>
<path d="M146.118 11.5213H148.854V13.4415L148.561 13.7447C148.366 13.9468 147.975 14.1489 147.486 14.3511C146.997 14.5532 146.411 14.6542 145.824 14.6542C144.358 14.6542 143.186 14.1489 142.306 13.1383C141.329 12.1277 140.84 10.9149 140.84 9.49999C140.84 8.0851 141.329 6.77127 142.306 5.86169C143.283 4.85105 144.456 4.4468 145.824 4.4468C146.313 4.4468 146.9 4.54786 147.388 4.64893C147.877 4.74999 148.268 4.95212 148.659 5.15425C148.952 5.35637 149.245 5.5585 149.539 5.86169C149.832 6.16488 150.027 6.26595 150.125 6.36701C150.223 6.46808 150.223 6.56914 150.32 6.6702L153.155 3.53722L152.862 3.13297C152.666 2.93084 152.373 2.62765 151.982 2.22339C151.591 1.9202 151.102 1.51595 150.516 1.21276C149.929 0.909564 149.245 0.606373 148.463 0.303181C147.584 0.101053 146.704 -0.101074 145.824 -0.101074C143.088 -0.101074 140.84 0.8085 138.983 2.72871C137.126 4.64893 136.148 6.87233 136.148 9.39893C136.148 11.9255 137.126 14.25 138.983 16.0691C140.84 17.9894 143.186 18.8989 145.824 18.8989C146.802 18.8989 147.681 18.7979 148.561 18.4947C149.441 18.1915 150.125 17.9894 150.711 17.5851C151.298 17.2819 151.786 16.8776 152.275 16.4734C152.764 16.0691 153.057 15.7659 153.253 15.5638C153.448 15.3617 153.546 15.2606 153.546 15.1596V8.48935H146.118V11.5213V11.5213Z" fill="white"/>
<path d="M166.056 -1.52588e-05C163.319 -1.52588e-05 161.071 0.909559 159.214 2.82977C157.357 4.74999 156.38 6.97339 156.38 9.49999C156.38 12.0266 157.357 14.3511 159.214 16.1702C161.071 18.0904 163.417 19 166.056 19C168.793 19 171.04 18.0904 172.897 16.1702C174.755 14.3511 175.732 12.0266 175.732 9.49999C175.732 6.97339 174.755 4.64892 172.897 2.82977C171.04 0.909559 168.695 -1.52588e-05 166.056 -1.52588e-05ZM169.477 13.1383C168.597 14.1489 167.424 14.6542 166.056 14.6542C164.688 14.6542 163.515 14.1489 162.635 13.1383C161.658 12.1276 161.267 10.9149 161.267 9.49999C161.267 8.08509 161.755 6.77126 162.635 5.86169C163.612 4.85105 164.688 4.44679 166.056 4.44679C167.424 4.44679 168.597 4.95211 169.477 5.86169C170.356 6.77126 170.845 8.08509 170.845 9.49999C170.845 10.9149 170.454 12.2287 169.477 13.1383Z" fill="white"/>
<path d="M187.363 -1.52588e-05C184.626 -1.52588e-05 182.378 0.909559 180.521 2.82977C178.664 4.74999 177.687 6.97339 177.687 9.49999C177.687 12.0266 178.664 14.3511 180.521 16.1702C182.378 18.0904 184.724 19 187.363 19C190.002 19 192.348 18.0904 194.205 16.1702C196.062 14.3511 197.039 12.0266 197.039 9.49999C197.039 6.97339 196.062 4.64892 194.205 2.82977C192.348 0.909559 190.1 -1.52588e-05 187.363 -1.52588e-05ZM190.882 13.1383C190.002 14.1489 188.829 14.6542 187.461 14.6542C186.092 14.6542 184.92 14.1489 184.04 13.1383C183.16 12.1276 182.672 10.9149 182.672 9.49999C182.672 8.08509 183.16 6.77126 184.04 5.86169C184.92 4.95211 186.092 4.44679 187.461 4.44679C188.829 4.44679 190.002 4.95211 190.882 5.86169C191.761 6.77126 192.25 8.08509 192.25 9.49999C192.25 10.9149 191.761 12.2287 190.882 13.1383Z" fill="white"/>
<path d="M213.361 3.13297C211.602 1.41488 209.452 0.50531 206.813 0.50531H200.069V18.4947H206.813C209.452 18.4947 211.7 17.5851 213.361 15.867C215.12 14.1489 216 12.0266 216 9.49999C216 6.97339 215.12 4.85105 213.361 3.13297ZM209.94 12.8351C209.061 13.7447 207.986 14.1489 206.813 14.1489H204.858V4.85105H206.813C208.083 4.85105 209.158 5.25531 210.038 6.16488C210.918 7.07446 211.309 8.0851 211.309 9.49999C211.309 10.8138 210.82 11.9255 209.94 12.8351Z" fill="white"/>
<path d="M129.013 15.0585H111.127V18.3936H129.013V15.0585Z" fill="white"/>
</g>
<defs>
<clipPath id="clip0_226_85">
<rect width="216" height="19" fill="white"/>
</clipPath>
</defs>
</svg>
