<svg width="154" height="74" viewBox="0 0 154 74" fill="none" xmlns="http://www.w3.org/2000/svg">
<path d="M90.7516 29.3409H94.1948V25.0756H90.7516V29.3409ZM84.2653 51.2185H87.7086V46.9575H84.2653V51.2185ZM84.6226 29.3366H88.0658V25.0756H84.6226V29.3366ZM93.8118 46.9575H90.3685V50.4567C90.3685 50.715 90.3685 50.9689 90.4029 51.2228H93.8892C93.8436 50.8776 93.822 50.5295 93.8247 50.1812L93.8118 46.9575ZM80.7962 25.0756H77.353V28.5748C77.353 28.833 77.353 29.087 77.3874 29.3409H80.878C80.8323 28.9956 80.8108 28.6476 80.8135 28.2993L80.7962 25.0756ZM116.619 25.0756H113.176V29.3409H116.619V25.0756ZM65.095 51.2185H68.8051V46.9575H65.095V51.2185ZM77.1033 46.9532C76.7514 47.8313 76.5773 48.7705 76.5912 49.7164C76.5925 50.22 76.6371 50.7226 76.7246 51.2185H80.3486C80.2208 50.6814 80.1586 50.1308 80.1635 49.5787C80.1273 48.6623 80.3447 47.7538 80.7919 46.9532H77.1033ZM65.095 29.3366H68.8309V26.7111H74.8007V25.0756H65.095V29.3366ZM128.692 51.2185H132.135V46.9575H128.692V51.2185ZM116.981 46.9532C116.615 47.8521 116.43 48.8147 116.438 49.7853C116.439 50.2669 116.49 50.7472 116.589 51.2185H120.256C120.084 50.6257 120.002 50.0107 120.011 49.3936C119.981 48.5394 120.191 47.6939 120.618 46.9532H116.981ZM129.372 25.0713C129.457 25.3945 129.502 25.727 129.505 26.0612L125.468 26.2678C125.502 25.8542 125.607 25.4495 125.778 25.0713H122.206C121.846 25.9239 121.663 26.8404 121.668 27.7656C121.668 28.2944 121.729 28.8215 121.849 29.3366H125.447C125.367 29.0631 125.308 28.784 125.27 28.5016L133.082 28.3424C133.14 27.8595 133.172 27.3739 133.177 26.8876C133.18 26.2725 133.091 25.6604 132.914 25.0713H129.372ZM139.444 46.9532H135.828C136.072 47.6003 136.185 48.2894 136.16 48.9804V51.2185H139.603V48.6791C139.609 48.1013 139.556 47.5244 139.444 46.9575V46.9532ZM103.956 51.2185H107.4V46.9575H103.956V51.2185ZM103.04 25.0713H99.5965V28.5705C99.5965 28.8287 99.5965 29.0827 99.6309 29.3366H103.121C103.076 28.9913 103.054 28.6433 103.057 28.295L103.04 25.0713ZM110.912 46.9532C111.158 47.5906 111.269 48.272 111.239 48.9546V51.2185H114.682V48.6791C114.684 48.1009 114.626 47.5239 114.51 46.9575L110.912 46.9532ZM97.6381 51.2185H101.081V46.9575H97.6381V51.2185ZM106.866 29.3366H110.309V25.0756H106.866V29.3366Z" fill="url(#paint0_linear_226_105)"/>
<path d="M80.7919 21.7055H77.3357V25.0756H80.7919V21.7055Z" fill="white"/>
<path d="M116.619 24.3568C117.108 24.0933 117.652 23.946 118.207 23.9264C119.014 24.0064 119.797 24.2417 120.514 24.6193L121.594 21.8992C120.69 21.5509 119.732 21.363 118.762 21.3439C117.937 21.3595 117.119 21.5048 116.339 21.7743C115.986 21.9148 115.613 22.0005 115.233 22.0283C114.871 22.0056 114.521 21.8851 114.222 21.6797H113.184V25.0497H116.628L116.619 24.3568Z" fill="white"/>
<path d="M74.8006 24.3353H68.8309V20.1388H75.7691V17.7888H63.6187V18.2192C63.8251 18.2408 64.0252 18.3028 64.2076 18.4018C64.39 18.5007 64.5511 18.6347 64.6818 18.7959C65.1122 19.3511 65.1122 20.1345 65.1122 21.1718V25.0928H74.8179L74.8006 24.3353Z" fill="white"/>
<path d="M132.148 46.4238C132.732 46.1141 133.377 45.9405 134.038 45.9159C134.359 45.8915 134.681 45.9508 134.972 46.0881C135.263 46.2254 135.514 46.436 135.699 46.6993C135.742 46.7767 135.785 46.8671 135.828 46.9575H139.443C139.33 46.3592 139.107 45.7871 138.785 45.2703C137.924 43.936 136.388 43.2216 134.524 43.2216C133.71 43.219 132.903 43.3755 132.148 43.6821V37.6177H128.705V46.9575H132.148V46.4238Z" fill="white"/>
<path d="M94.2076 24.0598H97.3453V21.7055H94.2076V17.4444L90.7515 18.2708V25.0756H94.2076V24.0598Z" fill="white"/>
<path d="M110.322 21.7055H106.866V25.0756H110.322V21.7055Z" fill="white"/>
<path d="M103.035 21.7055H99.5791V25.0756H103.035V21.7055Z" fill="white"/>
<path d="M88.0787 21.7055H84.6226V25.0756H88.0787V21.7055Z" fill="white"/>
<path d="M82.8362 45.7308C83.3326 45.7382 83.8211 45.8574 84.2651 46.0795V46.9403H87.7084V43.1785L85.4229 43.7079C84.561 43.415 83.6601 43.2526 82.7501 43.2259C81.5389 43.1891 80.3458 43.5258 79.3325 44.1902C78.3192 44.8547 77.5349 45.8148 77.0859 46.9403H80.7745C80.9824 46.576 81.2821 46.2725 81.6439 46.0603C82.0057 45.8481 82.4168 45.7345 82.8362 45.7308V45.7308Z" fill="white"/>
<path d="M101.094 43.5874H97.6382V46.9575H101.094V43.5874Z" fill="white"/>
<path d="M93.8119 43.5874H90.3557V46.9575H93.8119V43.5874Z" fill="white"/>
<path d="M107.413 46.3076C107.957 46.0709 108.541 45.9381 109.134 45.9159C109.451 45.8968 109.767 45.9588 110.053 46.0958C110.34 46.2329 110.586 46.4405 110.77 46.6993C110.817 46.781 110.86 46.8671 110.903 46.9575H114.514C114.401 46.36 114.179 45.7883 113.86 45.2703C112.999 43.9361 111.463 43.2216 109.595 43.2216C107.873 43.2216 107.034 43.9102 106.044 43.9102C105.677 43.8879 105.321 43.7771 105.007 43.5874H103.948V46.9575H107.391L107.413 46.3076Z" fill="white"/>
<path d="M127.706 23.7112C128.1 23.7047 128.484 23.8382 128.789 24.088C129.094 24.3379 129.301 24.6878 129.372 25.0756H132.931C132.208 22.7126 130.069 21.4085 127.766 21.4085C126.581 21.3947 125.419 21.7368 124.43 22.3905C123.441 23.0442 122.67 23.9795 122.219 25.0756H125.791C125.943 24.6868 126.206 24.3509 126.546 24.1086C126.886 23.8664 127.289 23.7283 127.706 23.7112Z" fill="white"/>
<path d="M68.8051 39.6707H63.6187V40.1011C63.8251 40.1227 64.0252 40.1847 64.2076 40.2837C64.39 40.3827 64.5511 40.5166 64.6818 40.6779C65.1122 41.2331 65.1122 42.0379 65.1122 43.0752V46.9747H68.8223L68.8051 39.6707Z" fill="white"/>
<path d="M122.615 43.2904C124.244 43.3503 125.828 43.8435 127.203 44.7194L125.752 47.5988C124.53 46.3076 123.514 45.7566 122.571 45.7566C122.171 45.774 121.781 45.8934 121.439 46.1036C121.097 46.3137 120.814 46.6076 120.617 46.9575H116.98C117.433 45.8444 118.216 44.8964 119.223 44.2409C120.23 43.5854 121.413 43.2537 122.615 43.2904Z" fill="white"/>
<path d="M106.866 30.9506C106.322 31.1873 105.738 31.3202 105.144 31.3423C104.826 31.3645 104.506 31.304 104.217 31.1668C103.929 31.0296 103.68 30.8202 103.496 30.559C103.281 30.1847 103.146 29.77 103.1 29.3409H99.6223C99.6708 30.2745 99.9439 31.1826 100.419 31.9879C101.279 33.3265 102.816 34.041 104.684 34.041C106.406 34.041 107.241 33.348 108.235 33.348C108.602 33.3703 108.957 33.4811 109.272 33.6708H110.331V29.3409H106.888L106.866 30.9506Z" fill="white"/>
<path d="M84.6225 30.9506C84.078 31.1873 83.4941 31.3202 82.9009 31.3423C82.584 31.3622 82.2674 31.3007 81.9811 31.1636C81.6948 31.0264 81.4484 30.8183 81.2653 30.559C81.0504 30.1847 80.9156 29.77 80.8693 29.3409H77.3701C77.4186 30.2745 77.6917 31.1826 78.1664 31.9879C79.0272 33.3265 80.5637 34.041 82.4317 34.041C84.1533 34.041 84.9883 33.348 85.9826 33.348C86.3492 33.3708 86.705 33.4816 87.0199 33.6708H88.0787V29.3409H84.6354L84.6225 30.9506Z" fill="white"/>
<path d="M139.616 51.2229H136.16V55.5528H139.616V51.2229Z" fill="white"/>
<path d="M132.148 51.2229H128.692V55.5528H132.148V51.2229Z" fill="white"/>
<path d="M122.546 55.9918C124.292 55.9703 125.977 55.3487 127.319 54.2314L126.256 52.3204C125.363 53.0382 124.267 53.4569 123.122 53.5169C121.831 53.5169 120.725 52.7723 120.256 51.2401H116.589C116.872 52.6021 117.623 53.8223 118.711 54.6899C119.798 55.5575 121.155 56.018 122.546 55.9918V55.9918Z" fill="white"/>
<path d="M127.797 34.1098C129.622 34.1098 131.21 33.5761 132.983 32.3322L131.877 30.4212C130.586 31.1788 129.368 31.6178 128.305 31.6178C127.013 31.6178 125.933 30.9162 125.464 29.3409H121.848C122.129 30.7043 122.877 31.9269 123.963 32.7976C125.049 33.6683 126.405 34.1324 127.797 34.1098Z" fill="white"/>
<path d="M97.6379 52.8326C97.0934 53.0692 96.5095 53.2021 95.9163 53.2242C95.5994 53.2441 95.2828 53.1826 94.9965 53.0455C94.7102 52.9084 94.4638 52.7002 94.2807 52.4409C94.0658 52.0667 93.931 51.6519 93.8847 51.2228H90.3984C90.4434 52.1564 90.7152 53.065 91.1904 53.8698C92.0512 55.2084 93.5878 55.9229 95.4557 55.9229C97.1774 55.9229 98.0124 55.2299 99.0066 55.2299C99.3733 55.2523 99.7292 55.363 100.044 55.5527H101.103V51.2185H97.6594L97.6379 52.8326Z" fill="white"/>
<path d="M84.2651 52.9703C83.7975 53.318 83.2336 53.512 82.6511 53.5255C82.1509 53.5218 81.672 53.3225 81.3168 52.9703C80.8235 52.5001 80.4856 51.8904 80.3484 51.2228H76.7244C76.847 51.9129 77.0733 52.5804 77.3958 53.2027C77.8874 54.0773 78.6098 54.8 79.4842 55.2918C80.3587 55.7837 81.3514 56.0258 82.3541 55.9918C83.1218 55.987 83.8809 55.8305 84.5879 55.5312C84.921 55.3705 85.282 55.2755 85.651 55.2515C86.0187 55.2686 86.3758 55.3797 86.6883 55.5743H87.7256V51.2185H84.2823L84.2651 52.9703Z" fill="white"/>
<path d="M90.7515 30.6494C90.7515 31.7555 90.9839 32.5862 91.4659 33.1156C91.751 33.4099 92.0962 33.6392 92.478 33.7878C92.8598 33.9363 93.2692 34.0007 93.6782 33.9764C95.0857 33.9764 96.8159 33.2619 98.034 32.4743L97.3195 30.5159C96.7212 30.7699 95.5247 31.2562 94.9006 31.2562C94.5304 31.2562 94.2076 31.0453 94.2076 30.4686V29.3409H90.7644L90.7515 30.6494Z" fill="white"/>
<path d="M114.695 51.2229H111.239V55.5528H114.695V51.2229Z" fill="white"/>
<path d="M116.619 29.3409H113.184V33.6708H116.619V29.3409Z" fill="white"/>
<path d="M107.413 51.2229H103.957V55.5528H107.413V51.2229Z" fill="white"/>
<path d="M65.095 55.5528H75.9757V53.1554H68.8051V51.2229H65.095V55.5528Z" fill="white"/>
<path d="M68.8309 29.3409H65.095V33.6708H68.8309V29.3409Z" fill="white"/>
<path d="M49.015 14.3842V54.0807C49.015 55.5743 48.4038 56.4437 47.2072 56.9042C42.2786 58.7211 37.0644 59.6409 31.8116 59.6201C26.5573 59.6405 21.3418 58.7208 16.4116 56.9042C15.215 56.4437 14.6039 55.5743 14.6039 54.0807V14.3842H49.0365M50.0307 13.3943H13.6096V54.0807C13.6096 55.9444 14.436 57.2055 16.0586 57.8296C21.1004 59.6941 26.4362 60.6374 31.8116 60.6143C37.1869 60.6366 42.5226 59.6934 47.5645 57.8296C49.1871 57.2055 50.0092 55.9444 50.0092 54.0807V13.3943H50.0307Z" fill="white"/>
<path d="M49.0149 54.0807C49.0149 55.5743 48.4037 56.4437 47.2071 56.9042C42.2784 58.7207 37.0643 59.6405 31.8115 59.6201C26.5572 59.6405 21.3417 58.7208 16.4115 56.9042C15.2149 56.4437 14.6038 55.5743 14.6038 54.0807V14.3842H49.0364L49.0149 54.0807Z" fill="#0060A9"/>
<path d="M23.8317 38.5731C19.0714 35.6033 17.4961 34.2691 17.3756 32.3322C17.3636 31.809 17.4423 31.2877 17.608 30.7914L17.1776 30.4944C16.7897 31.0963 16.5739 31.7929 16.5535 32.5087C16.5488 33.4573 16.8292 34.3855 17.3584 35.1729C18.0255 36.2059 18.7314 36.8515 20.4659 38.1513C22.1493 39.3632 23.485 40.9958 24.3396 42.8858H24.6065V40.9619C27.1329 42.3952 29.3409 43.7423 30.4557 46.1526H30.7182C30.3007 43.6563 28.8847 41.7495 23.8317 38.5731Z" fill="#FEDF00"/>
<path d="M45.7782 46.1569H45.4554C45.4554 44.3793 43.8284 43.893 42.1197 43.893H36.7827C36.9772 44.8386 37.0178 45.8095 36.9032 46.7681H36.6363C36.1414 42.7696 33.886 40.7897 30.7268 38.6721V40.4927H30.4643C29.625 38.6162 27.7785 36.8558 26.0225 35.6033L24.6021 34.5919V36.5502H24.3353C23.6079 34.6048 22.265 33.1414 20.3497 31.4197C18.2751 29.5647 17.4444 28.4499 16.9839 27.1673C16.7119 26.4472 16.5804 25.6816 16.5965 24.912C16.5965 23.3883 17.3454 22.011 18.3182 21.4945V22.2348C17.8412 22.8832 17.5861 23.6681 17.5908 24.473C17.5903 25.2705 17.7791 26.0567 18.1417 26.767C19.3081 28.9836 23.2291 31.7081 25.7255 33.3781C33.4728 38.5731 35.018 39.4813 36.3092 42.2402C36.4805 42.6273 36.6159 43.0292 36.7138 43.441C37.8329 43.2646 41.8787 42.6491 42.6405 42.5286C42.7868 42.5286 43.0709 42.4683 43.2388 42.4597C43.9274 42.0133 44.514 41.4267 44.9604 40.7381L41.9476 40.5229C41.8194 40.8172 41.6757 41.1045 41.5171 41.3837H41.2761C41.3579 41.0781 41.4268 40.7811 41.487 40.4884L40.7295 40.4325V40.2732L41.5516 40.1699C41.6987 39.3847 41.7808 38.5886 41.7969 37.7898L38.0739 37.5746C38.0739 37.9576 38.0739 38.3192 38.0739 38.6549H37.8156C37.7339 38.2804 37.6736 37.9103 37.6263 37.5488L36.8042 37.5014V37.2518L37.5832 37.2087C37.486 36.3098 37.4615 35.4044 37.51 34.5015L35.3193 34.4025C35.4291 34.595 35.5255 34.7949 35.6076 35.0007C35.9733 36.1587 36.0428 37.3899 35.8099 38.5817H35.5431C35.4797 37.7473 35.285 36.928 34.9663 36.1542C34.3595 34.7253 33.0037 33.4685 30.7268 32.0051V33.8257H30.4643C29.7068 31.4327 27.8216 30.0984 25.0196 28.6608C22.7083 27.4772 22.0068 26.044 22.123 23.8317L22.902 24.2965C22.9515 25.1757 23.3361 26.0026 23.9765 26.607C24.617 27.2114 25.4647 27.5475 26.3453 27.5461C27.2815 27.5319 28.2142 27.4267 29.13 27.2319C30.4212 26.9736 31.5962 26.7541 32.5733 27.1028V25.8589H31.7985C31.3173 26.2219 30.7268 26.4102 30.1243 26.3926C29.2118 26.3926 27.4902 25.8847 27.4902 23.9565C27.4902 22.2822 28.9062 22.0153 30.0726 22.0153C30.6881 22.0153 31.7168 21.9895 32.0654 21.9723C32.2732 21.9837 32.4781 21.9195 32.6421 21.7915C32.7546 21.6744 32.8243 21.5228 32.8401 21.3611C32.8865 21.104 32.9095 20.8433 32.909 20.5821V19.3683H27.5375V21.4773L25.5146 20.7069V20.199H26.483V19.3683H22.8762V17.5994H21.6495C21.2795 17.5917 20.9206 17.7263 20.6468 17.9753C20.3729 18.2243 20.205 18.5688 20.1775 18.9379C20.1302 19.7987 20.5132 20.5175 21.3956 20.5175H21.5505V21.5419H21.3956C21.0409 21.5483 20.6886 21.4832 20.3596 21.3506C20.0306 21.2179 19.7317 21.0204 19.4807 20.7698C19.2297 20.5192 19.0317 20.2206 18.8985 19.8918C18.7653 19.563 18.6997 19.2108 18.7055 18.8561C18.7155 18.472 18.8016 18.0936 18.9589 17.7429C19.1161 17.3922 19.3414 17.0762 19.6216 16.8132C19.9018 16.5502 20.2314 16.3454 20.5913 16.2107C20.9513 16.076 21.3343 16.014 21.7184 16.0284H24.3008V17.7887H34.4542V20.3712C34.4542 20.8016 34.4542 21.3956 34.3896 21.77C34.3743 21.9965 34.3112 22.2172 34.2044 22.4175C34.0975 22.6179 33.9494 22.7932 33.7698 22.9321C33.3094 23.2043 32.774 23.3219 32.2419 23.2678C31.9922 23.2678 31.2734 23.2678 30.4126 23.2033C29.2548 23.1301 28.9277 23.5777 28.8804 23.9909C28.8718 24.0753 28.8718 24.1604 28.8804 24.2449C29.1796 23.9989 29.5351 23.8308 29.9152 23.7557C30.2952 23.6806 30.6879 23.7008 31.0582 23.8144C32.5905 24.2965 33.0252 24.3395 33.8215 23.7111L33.9032 23.8919C33.7773 24.0806 33.6218 24.2477 33.4427 24.3869H34.1572V28.3897L36.4599 27.0124H42.916L46.0924 28.6737C46.2587 28.7463 46.403 28.8612 46.511 29.0069C46.619 29.1527 46.6869 29.3242 46.7079 29.5044C46.7546 29.8328 46.691 30.1673 46.5271 30.4556L45.3004 32.4785C45.9459 33.1806 46.4397 34.0082 46.751 34.9097C47.0623 35.8112 47.1844 36.7672 47.1096 37.7179C47.0349 38.6687 46.765 39.5939 46.3167 40.4356C45.8684 41.2774 45.2514 42.0177 44.5042 42.6103C45.2806 42.8505 45.9517 43.3486 46.4066 44.0221L45.7782 46.1569ZM31.3767 24.5892C30.4686 24.3912 29.965 24.5031 29.4442 24.9981C29.7328 25.1334 30.0521 25.1898 30.3696 25.1616C30.569 25.1451 30.7623 25.0853 30.9363 24.9864C31.1102 24.8876 31.2605 24.752 31.3767 24.5892ZM30.8516 30.3609L33.4083 28.8373C32.8754 28.5625 32.2861 28.4152 31.6866 28.4069C30.8043 28.4069 29.3194 28.7986 28.5963 28.9105C28.9277 29.1343 30.0683 29.8617 30.8516 30.3609ZM42.2661 30.5202L42.619 30.0252L42.0724 29.2935L42.1628 29.13L43.7079 29.965L43.3722 30.9893C43.6426 31.1271 43.903 31.2839 44.1512 31.4585L45.1498 29.8229L42.5673 28.4715H36.8644L32.2333 31.2519C33.0532 31.7985 33.8047 32.4415 34.4714 33.1672C35.1037 32.267 35.9406 31.5295 36.9132 31.0155C37.8859 30.5015 38.9666 30.2255 40.0667 30.2103C40.8114 30.1996 41.5533 30.3041 42.2661 30.5202ZM41.8012 36.9763C41.7716 36.2064 41.6766 35.4404 41.5171 34.6865L38.5043 34.5488C38.2993 35.4157 38.1555 36.2959 38.0739 37.1829L41.8012 36.9763ZM42.8084 34.7468C42.8967 35.4722 42.9155 36.2043 42.8643 36.9333L45.8772 36.774C45.8014 36.1083 45.6122 35.4605 45.3176 34.8587L42.8084 34.7468ZM41.2804 33.7655C41.0745 33.0073 40.7858 32.2741 40.4196 31.579C40.2948 31.579 40.1657 31.579 40.0408 31.579C39.8306 31.5853 39.6209 31.6026 39.4125 31.6306C39.1158 32.3792 38.8657 33.1453 38.6635 33.9247L41.2804 33.7655ZM42.1111 31.9491C42.3224 32.5102 42.4935 33.0855 42.6233 33.6708L44.4568 33.5675C43.8225 32.8462 43.0217 32.2907 42.124 31.9491H42.1111ZM45.4769 39.6965C45.7031 39.1712 45.8357 38.6104 45.8686 38.0394L42.7567 37.863C42.6316 38.6334 42.4238 39.3881 42.1369 40.114L45.4769 39.6965ZM37.8156 32.0697C36.8395 32.4986 36.0063 33.1974 35.414 34.084L37.566 33.9721C37.6077 33.3332 37.6911 32.6977 37.8156 32.0697Z" fill="#FEDF00"/>
<path d="M33.8644 50.7537C34.3197 50.6997 34.7407 50.4848 35.0517 50.1479C35.3626 49.8109 35.5429 49.374 35.5602 48.9159C35.5602 47.9948 35.1686 46.9876 32.4613 46.9876H27.8904V47.0608C28.0762 47.1228 28.2465 47.2241 28.3897 47.3578C28.5471 47.5443 28.6661 47.7601 28.74 47.9928C28.8138 48.2254 28.841 48.4704 28.8201 48.7136V55.557H32.6077C34.6908 55.557 36.1973 54.7608 36.1973 52.9402C36.1973 51.4639 35.061 50.8312 33.8644 50.7537ZM31.9147 47.8011C32.8831 47.8011 33.5416 48.012 33.5416 49.0493C33.5416 50.1511 32.6808 50.4567 31.6564 50.4567H30.7956V47.8011H31.9147ZM32.0137 54.7479H30.7913V51.2487H31.9577C33.5589 51.2487 34.1743 51.7264 34.1743 52.9273C34.1743 54.2314 33.3695 54.7479 32.0137 54.7479Z" fill="white"/>
<path d="M24.5161 55.557H26.9867L23.8318 51.5284C25.0972 51.1884 26.0441 50.4955 26.0441 49.243C26.0441 47.7667 25.1833 46.9876 22.8505 46.9876H18.0815V47.0608C18.2681 47.126 18.4395 47.2285 18.5851 47.3621C18.9165 47.6935 19.0155 48.1928 19.0155 48.8728V55.557H20.9954V51.7565H21.7185L24.5161 55.557ZM20.9954 47.8097H22.3297C23.4401 47.8097 24.0212 48.1368 24.0212 49.3161C24.0212 50.3706 23.2637 50.9904 22.0456 50.9904H20.9954V47.8097Z" fill="white"/>
<path d="M44.2027 48.1583C44.5004 48.3148 44.7435 48.5579 44.9 48.8556C44.9129 48.8611 44.9268 48.864 44.9409 48.864C44.955 48.864 44.9689 48.8611 44.9818 48.8556L45.4122 47.3879C45.4122 47.3879 44.6375 46.8326 42.7953 46.8326C40.0106 46.8326 37.9231 48.2358 37.9231 51.3089C37.9231 54.7521 40.4109 55.6689 42.5973 55.6689C44.6375 55.6689 45.438 55.019 45.438 55.019V54.0161C45.438 54.0161 44.7192 54.6876 43.1741 54.6876C41.8828 54.6876 40.0278 54.1065 39.9891 51.2443C39.9503 48.6188 41.0952 47.7623 42.6318 47.7623C43.1823 47.7434 43.727 47.8807 44.2027 48.1583Z" fill="white"/>
<path d="M52.8801 58.9315C52.4544 58.9315 52.0384 58.8052 51.6845 58.5688C51.3306 58.3323 51.0547 57.9962 50.8918 57.603C50.729 57.2097 50.6863 56.777 50.7694 56.3596C50.8524 55.9421 51.0574 55.5587 51.3583 55.2577C51.6593 54.9567 52.0428 54.7518 52.4602 54.6687C52.8777 54.5857 53.3104 54.6283 53.7036 54.7912C54.0969 54.9541 54.433 55.2299 54.6694 55.5838C54.9059 55.9377 55.0321 56.3538 55.0321 56.7794C55.0321 57.3502 54.8054 57.8976 54.4018 58.3011C53.9982 58.7047 53.4508 58.9315 52.8801 58.9315V58.9315ZM52.8801 55.0578C52.4235 55.0578 51.9856 55.2392 51.6627 55.562C51.3398 55.8849 51.1584 56.3228 51.1584 56.7794C51.1584 57.236 51.3398 57.6739 51.6627 57.9968C51.9856 58.3197 52.4235 58.501 52.8801 58.501C53.3367 58.501 53.7746 58.3197 54.0974 57.9968C54.4203 57.6739 54.6017 57.236 54.6017 56.7794C54.6017 56.3228 54.4203 55.8849 54.0974 55.562C53.7746 55.2392 53.3367 55.0578 52.8801 55.0578V55.0578ZM53.0221 55.5614C53.1164 55.5544 53.2111 55.5678 53.2998 55.6004C53.3885 55.6331 53.4692 55.6844 53.5365 55.7509C53.6038 55.8173 53.656 55.8974 53.6898 55.9857C53.7236 56.074 53.7381 56.1686 53.7323 56.2629C53.7458 56.422 53.6974 56.5802 53.5972 56.7045C53.4969 56.8288 53.3526 56.9096 53.1943 56.9301C53.2316 56.96 53.2649 56.9948 53.2933 57.0334C53.431 57.2055 53.87 57.9716 53.87 57.9716H53.2976C53.2072 57.8081 53.1684 57.7478 53.0738 57.5714C52.837 57.141 52.7596 57.0248 52.6735 56.9817C52.6478 56.9783 52.6217 56.9783 52.596 56.9817V57.9889H52.1269V55.5786L53.0221 55.5614ZM52.5917 56.5986H52.7553C52.9661 56.5986 53.0565 56.5771 53.1211 56.5212C53.1811 56.4538 53.2134 56.3661 53.2115 56.2758C53.2204 56.2147 53.2082 56.1524 53.1769 56.0992C53.1456 56.046 53.097 56.0051 53.0393 55.9832C52.951 55.9589 52.8597 55.9473 52.7682 55.9487H52.5917V56.5986Z" fill="white"/>
<defs>
<linearGradient id="paint0_linear_226_105" x1="65.095" y1="38.147" x2="139.616" y2="38.147" gradientUnits="userSpaceOnUse">
<stop offset="0.1" stop-color="white"/>
<stop offset="0.13" stop-color="#E9F7FD"/>
<stop offset="0.21" stop-color="#BCE8FA"/>
<stop offset="0.29" stop-color="#96DBF6"/>
<stop offset="0.37" stop-color="#79D1F4"/>
<stop offset="0.45" stop-color="#65CAF2"/>
<stop offset="0.53" stop-color="#58C5F1"/>
<stop offset="0.6" stop-color="#54C4F1"/>
<stop offset="0.9" stop-color="#FFCA32"/>
</linearGradient>
</defs>
</svg>
