<svg width="26" height="30" viewBox="0 0 26 30" fill="none" xmlns="http://www.w3.org/2000/svg">
<g clip-path="url(#clip0_206_2963)">
<path d="M13.0163 8.48635C9.32816 8.48635 6.35331 11.392 6.35331 14.9944C6.35331 18.5967 9.32816 21.5024 13.0163 21.5024C16.7044 21.5024 19.6792 18.5967 19.6792 14.9944C19.6792 11.392 16.7044 8.48635 13.0163 8.48635ZM13.0163 19.2254C10.6329 19.2254 8.68448 17.328 8.68448 14.9944C8.68448 12.6608 10.6271 10.7633 13.0163 10.7633C15.4054 10.7633 17.3481 12.6608 17.3481 14.9944C17.3481 17.328 15.3996 19.2254 13.0163 19.2254ZM21.5059 8.22014C21.5059 9.06409 20.81 9.73811 19.9518 9.73811C19.0877 9.73811 18.3977 9.05842 18.3977 8.22014C18.3977 7.38186 19.0935 6.70217 19.9518 6.70217C20.81 6.70217 21.5059 7.38186 21.5059 8.22014ZM25.9189 9.76077C25.8203 7.72737 25.3448 5.9262 23.8197 4.44221C22.3003 2.95823 20.4563 2.49377 18.3745 2.39182C16.2289 2.27288 9.79787 2.27288 7.65227 2.39182C5.57626 2.48811 3.7322 2.95256 2.20708 4.43655C0.681967 5.92053 0.212254 7.7217 0.107874 9.7551C-0.0139038 11.8508 -0.0139038 18.1322 0.107874 20.228C0.206455 22.2614 0.681967 24.0625 2.20708 25.5465C3.7322 27.0305 5.57046 27.4949 7.65227 27.5969C9.79787 27.7158 16.2289 27.7158 18.3745 27.5969C20.4563 27.5006 22.3003 27.0362 23.8197 25.5465C25.339 24.0625 25.8145 22.2614 25.9189 20.228C26.0406 18.1322 26.0406 11.8565 25.9189 9.76077ZM23.147 22.4766C22.6947 23.5867 21.819 24.442 20.6766 24.8895C18.966 25.5522 14.9067 25.3992 13.0163 25.3992C11.1258 25.3992 7.06078 25.5465 5.3559 24.8895C4.21931 24.4477 3.34367 23.5924 2.88556 22.4766C2.20708 20.8057 2.36365 16.8408 2.36365 14.9944C2.36365 13.1479 2.21288 9.17737 2.88556 7.51213C3.33787 6.40198 4.21351 5.5467 5.3559 5.09924C7.06658 4.43655 11.1258 4.58948 13.0163 4.58948C14.9067 4.58948 18.9718 4.44221 20.6766 5.09924C21.8132 5.54104 22.6889 6.39631 23.147 7.51213C23.8255 9.18303 23.6689 13.1479 23.6689 14.9944C23.6689 16.8408 23.8255 20.8114 23.147 22.4766Z" fill="white"/>
</g>
<defs>
<clipPath id="clip0_206_2963">
<rect width="25.9792" height="29" fill="white" transform="translate(0.020874 0.5)"/>
</clipPath>
</defs>
</svg>
