<svg width="27" height="30" viewBox="0 0 27 30" fill="none" xmlns="http://www.w3.org/2000/svg">
<g clip-path="url(#clip0_206_2955)">
<path d="M24.2044 2.3125H2.40089C1.40183 2.3125 0.590088 3.13379 0.590088 4.14199V25.858C0.590088 26.8662 1.40183 27.6875 2.40089 27.6875H24.2044C25.2034 27.6875 26.0209 26.8662 26.0209 25.858V4.14199C26.0209 3.13379 25.2034 2.3125 24.2044 2.3125ZM8.27608 24.0625H4.50688V11.9527H8.28176V24.0625H8.27608ZM6.39148 10.2988C5.18238 10.2988 4.20603 9.31895 4.20603 8.11816C4.20603 6.91738 5.18238 5.9375 6.39148 5.9375C7.5949 5.9375 8.57694 6.91738 8.57694 8.11816C8.57694 9.32461 7.60058 10.2988 6.39148 10.2988ZM22.4049 24.0625H18.6357V18.1719C18.6357 16.7672 18.6073 14.9604 16.6773 14.9604C14.7132 14.9604 14.4124 16.4896 14.4124 18.0699V24.0625H10.6432V11.9527H14.2591V13.6066H14.3102C14.8154 12.6551 16.0472 11.6525 17.8807 11.6525C21.6954 11.6525 22.4049 14.1617 22.4049 17.4242V24.0625Z" fill="white"/>
</g>
<defs>
<clipPath id="clip0_206_2955">
<rect width="25.4308" height="29" fill="white" transform="translate(0.590088 0.5)"/>
</clipPath>
</defs>
</svg>
